{
  "accessors": [
    {
      "bufferView": 2,
      "componentType": 5126,
      "count": 19123,
      "max": [
        63.69989013671875,
        16.56401252746582,
        3.002608060836792
      ],
      "min": [
        -6.677401065826416,
        -17.0633544921875,
        -2.4498050212860107
      ],
      "type": "VEC3"
    },
    {
      "bufferView": 2,
      "byteOffset": 229476,
      "componentType": 5126,
      "count": 19123,
      "max": [
        0.9999990463256836,
        0.9999990463256836,
        0.9999990463256836
      ],
      "min": [
        -0.9999990463256836,
        -0.9999990463256836,
        -0.9999990463256836
      ],
      "type": "VEC3"
    },
    {
      "bufferView": 3,
      "componentType": 5126,
      "count": 19123,
      "max": [
        0.9999995827674866,
        0.9999995827674866,
        0.9999997019767761,
        1.0
      ],
      "min": [
        -0.9999995827674866,
        -0.9999995827674866,
        -0.9999996423721313,
        -1.0
      ],
      "type": "VEC4"
    },
    {
      "bufferView": 1,
      "componentType": 5126,
      "count": 19123,
      "max": [
        0.9970700144767761,
        0.9983729720115662
      ],
      "min": [
        0.0023419999051839113,
        0.0029299999587237835
      ],
      "type": "VEC2"
    },
    {
      "bufferView": 0,
      "componentType": 5125,
      "count": 64662,
      "type": "SCALAR"
    },
    {
      "bufferView": 2,
      "byteOffset": 458952,
      "componentType": 5126,
      "count": 1963,
      "max": [
        44.72048568725586,
        4.588447093963623,
        1.7895770072937012
      ],
      "min": [
        -29.454484939575195,
        -13.717120170593262,
        -2.038583993911743
      ],
      "type": "VEC3"
    },
    {
      "bufferView": 2,
      "byteOffset": 482508,
      "componentType": 5126,
      "count": 1963,
      "max": [
        0.9999990463256836,
        0.9999990463256836,
        0.9999990463256836
      ],
      "min": [
        -0.9999990463256836,
        -0.9999990463256836,
        -0.9999990463256836
      ],
      "type": "VEC3"
    },
    {
      "bufferView": 3,
      "byteOffset": 305968,
      "componentType": 5126,
      "count": 1963,
      "max": [
        0.9999995827674866,
        0.9999995827674866,
        0.9999995827674866,
        1.0
      ],
      "min": [
        -0.9999995827674866,
        -0.9999995827674866,
        -0.9999996423721313,
        -1.0
      ],
      "type": "VEC4"
    },
    {
      "bufferView": 1,
      "byteOffset": 152984,
      "componentType": 5126,
      "count": 1963,
      "max": [
        0.9931640028953552,
        0.9940339922904968
      ],
      "min": [
        0.006184000056236982,
        0.02392599917948246
      ],
      "type": "VEC2"
    },
    {
      "bufferView": 0,
      "byteOffset": 258648,
      "componentType": 5125,
      "count": 8313,
      "type": "SCALAR"
    },
    {
      "bufferView": 2,
      "byteOffset": 506064,
      "componentType": 5126,
      "count": 838,
      "max": [
        41.698265075683594,
        -8.034433364868164,
        1.0556210279464722
      ],
      "min": [
        29.661697387695313,
        -9.392452239990234,
        -1.1697770357131958
      ],
      "type": "VEC3"
    },
    {
      "bufferView": 2,
      "byteOffset": 516120,
      "componentType": 5126,
      "count": 838,
      "max": [
        0.9999990463256836,
        0.9999990463256836,
        0.9999990463256836
      ],
      "min": [
        -0.9999990463256836,
        -0.9999990463256836,
        -0.9999990463256836
      ],
      "type": "VEC3"
    },
    {
      "bufferView": 3,
      "byteOffset": 337376,
      "componentType": 5126,
      "count": 838,
      "max": [
        0.9999995827674866,
        0.9999995827674866,
        0.9999995827674866,
        1.0
      ],
      "min": [
        -0.9999995827674866,
        -0.9999995827674866,
        -0.9999995827674866,
        1.0
      ],
      "type": "VEC4"
    },
    {
      "bufferView": 1,
      "byteOffset": 168688,
      "componentType": 5126,
      "count": 838,
      "max": [
        0.8852540254592896,
        0.9906690120697021
      ],
      "min": [
        0.010200999677181244,
        0.008301000110805035
      ],
      "type": "VEC2"
    },
    {
      "bufferView": 0,
      "byteOffset": 291900,
      "componentType": 5125,
      "count": 2076,
      "type": "SCALAR"
    },
    {
      "bufferView": 2,
      "byteOffset": 526176,
      "componentType": 5126,
      "count": 30,
      "max": [
        -0.7881259918212891,
        -12.619918823242188,
        1.2556639909744263
      ],
      "min": [
        -3.14384388923645,
        -13.902748107910156,
        -0.18759700655937195
      ],
      "type": "VEC3"
    },
    {
      "bufferView": 2,
      "byteOffset": 526536,
      "componentType": 5126,
      "count": 30,
      "max": [
        0.0029330970719456673,
        -0.21786002814769745,
        0.9759756326675415
      ],
      "min": [
        -0.004884560126811266,
        -0.9934354424476624,
        0.11428952217102051
      ],
      "type": "VEC3"
    },
    {
      "bufferView": 1,
      "byteOffset": 175392,
      "componentType": 5126,
      "count": 30,
      "max": [
        0.9970700144767761,
        0.9969390034675598
      ],
      "min": [
        0.0030610000248998404,
        0.0029299999587237835
      ],
      "type": "VEC2"
    },
    {
      "bufferView": 0,
      "byteOffset": 300204,
      "componentType": 5125,
      "count": 84,
      "type": "SCALAR"
    }
  ],
  "asset": {
    "extras": {
      "author": "Observer3D (https://sketchfab.com/3danalyst)",
      "license": "CC-BY-4.0 (http://creativecommons.org/licenses/by/4.0/)",
      "source": "https://sketchfab.com/3d-models/stg-44-c1fa5b79ab0c42a1949506b3e0137424",
      "title": "STG-44"
    },
    "generator": "Sketchfab-14.10.0",
    "version": "2.0"
  },
  "bufferViews": [
    {
      "buffer": 0,
      "byteLength": 300540,
      "name": "floatBufferViews",
      "target": 34963
    },
    {
      "buffer": 0,
      "byteLength": 175632,
      "byteOffset": 300540,
      "byteStride": 8,
      "name": "floatBufferViews",
      "target": 34962
    },
    {
      "buffer": 0,
      "byteLength": 526896,
      "byteOffset": 476172,
      "byteStride": 12,
      "name": "floatBufferViews",
      "target": 34962
    },
    {
      "buffer": 0,
      "byteLength": 350784,
      "byteOffset": 1003068,
      "byteStride": 16,
      "name": "floatBufferViews",
      "target": 34962
    }
  ],
  "buffers": [
    {
      "byteLength": 1353852,
      "uri": "scene.bin"
    }
  ],
  "images": [
    {
      "uri": "textures/mtl_wpn_h1_asl_mp44_receiver_mp_camo_baseColor.png"
    },
    {
      "uri": "textures/mtl_wpn_h1_asl_mp44_receiver_mp_camo_metallicRoughness.png"
    },
    {
      "uri": "textures/mtl_wpn_h1_asl_mp44_receiver_mp_camo_normal.png"
    },
    {
      "uri": "textures/mtl_wpn_h1_asl_mp44_stock_camo_baseColor.png"
    },
    {
      "uri": "textures/mtl_wpn_h1_asl_mp44_stock_camo_metallicRoughness.png"
    },
    {
      "uri": "textures/mtl_wpn_h1_asl_mp44_stock_camo_normal.png"
    },
    {
      "uri": "textures/mtl_wpn_h1_sgn_m1014_foregrip_baseColor.png"
    },
    {
      "uri": "textures/mtl_wpn_h1_sgn_m1014_foregrip_metallicRoughness.png"
    },
    {
      "uri": "textures/mtl_wpn_h1_sgn_m1014_foregrip_normal.png"
    }
  ],
  "materials": [
    {
      "doubleSided": true,
      "name": "mtl_wpn_h1_asl_mp44_receiver_mp_camo",
      "normalTexture": {
        "index": 2
      },
      "pbrMetallicRoughness": {
        "baseColorTexture": {
          "index": 0
        },
        "metallicRoughnessTexture": {
          "index": 1
        }
      }
    },
    {
      "doubleSided": true,
      "name": "mtl_wpn_h1_asl_mp44_stock_camo",
      "normalTexture": {
        "index": 5
      },
      "pbrMetallicRoughness": {
        "baseColorTexture": {
          "index": 3
        },
        "metallicRoughnessTexture": {
          "index": 4
        }
      }
    },
    {
      "doubleSided": true,
      "name": "mtl_wpn_h1_sgn_m1014_foregrip",
      "normalTexture": {
        "index": 8
      },
      "pbrMetallicRoughness": {
        "baseColorTexture": {
          "index": 6
        },
        "metallicRoughnessTexture": {
          "index": 7
        }
      }
    },
    {
      "doubleSided": true,
      "name": "mtl_wpn_h1_sticker_placeholder",
      "pbrMetallicRoughness": {
        "baseColorFactor": [
          0.0,
          0.0,
          0.0,
          1.0
        ],
        "metallicFactor": 0.7504553734061931,
        "roughnessFactor": 0.051001821493624776
      }
    }
  ],
  "meshes": [
    {
      "name": "Object_0",
      "primitives": [
        {
          "attributes": {
            "NORMAL": 1,
            "POSITION": 0,
            "TANGENT": 2,
            "TEXCOORD_0": 3
          },
          "indices": 4,
          "material": 0,
          "mode": 4
        }
      ]
    },
    {
      "name": "Object_1",
      "primitives": [
        {
          "attributes": {
            "NORMAL": 6,
            "POSITION": 5,
            "TANGENT": 7,
            "TEXCOORD_0": 8
          },
          "indices": 9,
          "material": 1,
          "mode": 4
        }
      ]
    },
    {
      "name": "Object_2",
      "primitives": [
        {
          "attributes": {
            "NORMAL": 11,
            "POSITION": 10,
            "TANGENT": 12,
            "TEXCOORD_0": 13
          },
          "indices": 14,
          "material": 2,
          "mode": 4
        }
      ]
    },
    {
      "name": "Object_3",
      "primitives": [
        {
          "attributes": {
            "NORMAL": 16,
            "POSITION": 15,
            "TEXCOORD_0": 17
          },
          "indices": 18,
          "material": 3,
          "mode": 4
        }
      ]
    }
  ],
  "nodes": [
    {
      "children": [
        1
      ],
      "matrix": [
        1.0,
        0.0,
        0.0,
        0.0,
        0.0,
        -1.0,
        0.00016896742454242109,
        0.0,
        0.0,
        -0.00016896742454242109,
        -1.0,
        0.0,
        0.0,
        0.0,
        0.0,
        1.0
      ],
      "name": "Sketchfab_model"
    },
    {
      "children": [
        2,
        3,
        4,
        5
      ],
      "name": "wpn_h1_asl_mp44.obj.cleaner.materialmerger.gles"
    },
    {
      "mesh": 0,
      "name": "Object_2"
    },
    {
      "mesh": 1,
      "name": "Object_3"
    },
    {
      "mesh": 2,
      "name": "Object_4"
    },
    {
      "mesh": 3,
      "name": "Object_5"
    }
  ],
  "samplers": [
    {
      "magFilter": 9729,
      "minFilter": 9987,
      "wrapS": 10497,
      "wrapT": 10497
    }
  ],
  "scene": 0,
  "scenes": [
    {
      "name": "Sketchfab_Scene",
      "nodes": [
        0
      ]
    }
  ],
  "textures": [
    {
      "sampler": 0,
      "source": 0
    },
    {
      "sampler": 0,
      "source": 1
    },
    {
      "sampler": 0,
      "source": 2
    },
    {
      "sampler": 0,
      "source": 3
    },
    {
      "sampler": 0,
      "source": 4
    },
    {
      "sampler": 0,
      "source": 5
    },
    {
      "sampler": 0,
      "source": 6
    },
    {
      "sampler": 0,
      "source": 7
    },
    {
      "sampler": 0,
      "source": 8
    }
  ]
}
